<svg xmlns="http://www.w3.org/2000/svg" viewBox="0 0 120 120" fill="none" aria-label="니트/맨투맨">
  <defs>
    <linearGradient id="coolTop" x1="32" y1="24" x2="88" y2="96" gradientUnits="userSpaceOnUse">
      <stop offset="0" stop-color="#d0e5f7"/>
      <stop offset="1" stop-color="#84a6ca"/>
    </linearGradient>
    <filter id="soft" x="-20%" y="-20%" width="140%" height="140%">
      <feDropShadow dx="0" dy="5" stdDeviation="3" flood-color="#5f82a9" flood-opacity="0.3"/>
    </filter>
  </defs>
  <g filter="url(#soft)">
    <ellipse cx="60" cy="104" rx="31" ry="6" fill="#3d3d3d" opacity="0.12"/>
    <path d="M28 30h64c9 0 16 7 16 16v21H12V46c0-9 7-16 16-16z" fill="url(#coolTop)"/>
    <path d="M12 47h96v27c0 10-7 18-16 18H28c-9 0-16-8-16-18V47z" fill="#9db6d3"/>
    <path d="M24 47h72v20H24z" fill="#f5f9ff" opacity="0.6"/>
    <path d="M24 55h72" stroke="#81b7d7" stroke-width="3"/>
    <path d="M24 60h72" stroke="#81b7d7" stroke-width="3"/>
    <path d="M24 65h72" stroke="#81b7d7" stroke-width="3"/>
    <path d="M42 68c0 10 8 16 18 16s18-6 18-16" stroke="#718da8" stroke-width="2" fill="none"/>
    <path d="M36 82h48v10H36z" fill="#d6e6f4"/>
  </g>
</svg>
