<svg xmlns="http://www.w3.org/2000/svg" viewBox="0 0 120 120" fill="none" aria-label="패딩/두꺼운 코트">
  <defs>
    <linearGradient id="fcTop" x1="26" y1="18" x2="94" y2="106" gradientUnits="userSpaceOnUse">
      <stop offset="0" stop-color="#eef7ff"/>
      <stop offset="1" stop-color="#b0c7de"/>
    </linearGradient>
    <filter id="soft" x="-20%" y="-20%" width="140%" height="140%">
      <feDropShadow dx="0" dy="5" stdDeviation="3" flood-color="#7893ab" flood-opacity="0.34"/>
    </filter>
  </defs>
  <g filter="url(#soft)">
    <ellipse cx="60" cy="104" rx="31" ry="6" fill="#404040" opacity="0.15"/>
    <path d="M22 22h56c6 0 11 3 13 9l3 14h11c8 0 14 6 14 13v23c0 16-13 25-30 25H24c-17 0-30-9-30-25V44c0-7 6-13 14-13h16l4-9C29 23 35 22 41 22h-19z" fill="#f4fbff"/>
    <path d="M24 44h72c11 0 20 6 20 20v23c0 14-8 23-20 23H24c-12 0-20-9-20-23V44z" fill="url(#fcTop)"/>
    <path d="M28 44v17" stroke="#8097ad" stroke-width="2.8"/>
    <path d="M44 44v17" stroke="#8097ad" stroke-width="2.8"/>
    <path d="M60 44v17" stroke="#8097ad" stroke-width="2.8"/>
    <path d="M76 44v17" stroke="#8097ad" stroke-width="2.8"/>
    <path d="M32 63h44" stroke="#8097ad" stroke-width="2.8"/>
    <path d="M28 71h52" stroke="#8097ad" stroke-width="2.8"/>
    <path d="M24 87h72" stroke="#8097ad" stroke-width="2.8"/>
    <path d="M58 28h12v8H58z" fill="#4d6173"/>
    <path d="M58 28c-3 0-5 1-7 4" stroke="#4d6173" stroke-width="2.2"/>
    <circle cx="38" cy="74" r="2.3" fill="#fffbf0"/>
    <circle cx="46" cy="79" r="2.3" fill="#fffbf0"/>
    <circle cx="52" cy="75" r="2.3" fill="#fffbf0"/>
    <circle cx="70" cy="74" r="2.3" fill="#fffbf0"/>
    <circle cx="79" cy="79" r="2.3" fill="#fffbf0"/>
  </g>
</svg>
