<svg xmlns="http://www.w3.org/2000/svg" viewBox="0 0 120 120" fill="none" aria-label="민소매/반팔 + 반바지">
  <defs>
    <linearGradient id="heatTop" x1="36" y1="18" x2="84" y2="92" gradientUnits="userSpaceOnUse">
      <stop offset="0" stop-color="#ffcf9f"/>
      <stop offset="1" stop-color="#ff8c42"/>
    </linearGradient>
    <linearGradient id="heatBottom" x1="40" y1="52" x2="82" y2="104" gradientUnits="userSpaceOnUse">
      <stop offset="0" stop-color="#ffd6a8"/>
      <stop offset="1" stop-color="#ffaf5a"/>
    </linearGradient>
    <filter id="soft" x="-20%" y="-20%" width="140%" height="140%">
      <feDropShadow dx="0" dy="5" stdDeviation="3" flood-color="#ff8c2b" flood-opacity="0.34"/>
    </filter>
  </defs>
  <g filter="url(#soft)">
    <ellipse cx="60" cy="104" rx="30" ry="6" fill="#3a3a3a" opacity="0.12"/>
    <rect x="31" y="24" width="58" height="34" rx="12" fill="url(#heatTop)"/>
    <rect x="34" y="58" width="52" height="10" rx="6" fill="#fff2d6"/>
    <path d="M44 24c0-8 8-14 16-14s16 6 16 14v6H44v-6z" fill="#ffdbaf"/>
    <path d="M49 58h22v8c0 5-5 9-11 9s-11-4-11-9v-8z" fill="#ffd18b"/>
    <path d="M36 58l-5-24h58l-5 24" stroke="url(#heatTop)" stroke-width="4" stroke-linecap="round"/>
    <path d="M42 50h36v20H42z" fill="url(#heatBottom)"/>
    <rect x="38" y="66" width="44" height="18" rx="9" fill="#ffb86f"/>
    <rect x="42" y="70" width="36" height="10" rx="5" fill="#ffe4cb" opacity="0.85"/>
    <line x1="50" y1="70" x2="50" y2="84" stroke="#d17a2c" stroke-width="2"/>
    <line x1="60" y1="70" x2="60" y2="84" stroke="#d17a2c" stroke-width="2"/>
    <line x1="70" y1="70" x2="70" y2="84" stroke="#d17a2c" stroke-width="2"/>
  </g>
</svg>
