<svg xmlns="http://www.w3.org/2000/svg" viewBox="0 0 120 120" fill="none" aria-label="긴팔/얇은 가디건">
  <defs>
    <linearGradient id="mildTop" x1="34" y1="22" x2="86" y2="100" gradientUnits="userSpaceOnUse">
      <stop offset="0" stop-color="#dcefff"/>
      <stop offset="1" stop-color="#8eb7dd"/>
    </linearGradient>
    <filter id="soft" x="-20%" y="-20%" width="140%" height="140%">
      <feDropShadow dx="0" dy="5" stdDeviation="3" flood-color="#6d9ec7" flood-opacity="0.28"/>
    </filter>
  </defs>
  <g filter="url(#soft)">
    <ellipse cx="60" cy="104" rx="31" ry="6" fill="#3b3b3b" opacity="0.12"/>
    <path d="M30 26h60v18c0 7-6 13-13 13H43l-4 12h-6V39c0-8 5-13 11-13z" fill="#f5fbff"/>
    <path d="M30 26C24 26 18 31 18 38v24h84V38c0-7-6-12-13-12H30z" fill="#f7f7ff"/>
    <path d="M38 26h44v15H38z" fill="url(#mildTop)"/>
    <path d="M22 56h76l-5 34c0 6-5 10-11 10H37c-6 0-11-4-11-10L22 56z" fill="#abc8e3"/>
    <path d="M42 49h36v14H42z" fill="#f0f7ff"/>
    <path d="M32 72h56" stroke="#7799be" stroke-width="3"/>
    <path d="M32 78h56" stroke="#7799be" stroke-width="3"/>
    <path d="M32 84h56" stroke="#7799be" stroke-width="3"/>
    <rect x="48" y="65" width="24" height="9" rx="4.5" fill="#d0e4f7"/>
  </g>
</svg>
