<svg xmlns="http://www.w3.org/2000/svg" viewBox="0 0 120 120" fill="none" aria-label="코트/가죽자켓">
  <defs>
    <linearGradient id="vcTop" x1="28" y1="20" x2="92" y2="100" gradientUnits="userSpaceOnUse">
      <stop offset="0" stop-color="#f6f0ec"/>
      <stop offset="1" stop-color="#b4a89a"/>
    </linearGradient>
    <filter id="soft" x="-20%" y="-20%" width="140%" height="140%">
      <feDropShadow dx="0" dy="5" stdDeviation="3" flood-color="#8e7f70" flood-opacity="0.34"/>
    </filter>
  </defs>
  <g filter="url(#soft)">
    <ellipse cx="60" cy="104" rx="31" ry="6" fill="#444" opacity="0.14"/>
    <path d="M18 24c0-8 7-14 15-14h54c8 0 15 6 15 14v22h14l3 34c0 8-6 15-14 15H15c-8 0-14-7-14-15V46h17V24z" fill="#fff8f0"/>
    <path d="M22 46h76v22H22z" fill="url(#vcTop)"/>
    <path d="M30 46l2 31h52l2-31" stroke="#6f655d" stroke-width="2"/>
    <rect x="30" y="46" width="56" height="12" rx="6" fill="#3d3d3d" opacity="0.08"/>
    <path d="M34 58h12v19H34z" fill="#e5d4c5"/>
    <path d="M54 58h12v19H54z" fill="#e5d4c5"/>
    <path d="M26 68h68" stroke="#9e8a77" stroke-width="2.5"/>
    <path d="M42 50h36" stroke="#9e8a77" stroke-width="2.5"/>
  </g>
</svg>
