<svg xmlns="http://www.w3.org/2000/svg" viewBox="0 0 120 120" fill="none" aria-label="반팔 + 얇은 셔츠">
  <defs>
    <linearGradient id="warmTop" x1="36" y1="20" x2="84" y2="92" gradientUnits="userSpaceOnUse">
      <stop offset="0" stop-color="#fff1be"/>
      <stop offset="1" stop-color="#f5b85d"/>
    </linearGradient>
    <filter id="soft" x="-20%" y="-20%" width="140%" height="140%">
      <feDropShadow dx="0" dy="5" stdDeviation="3" flood-color="#f0a64d" flood-opacity="0.3"/>
    </filter>
  </defs>
  <g filter="url(#soft)">
    <ellipse cx="60" cy="104" rx="30" ry="6" fill="#3d3d3d" opacity="0.12"/>
    <path d="M27 28h66c7 0 13 5 13 12v26c0 7-6 12-13 12H87l2 24c0 6-4 10-10 10H42c-6 0-10-4-10-10l2-24h-8c-7 0-13-5-13-12V40c0-7 6-12 13-12z" fill="url(#warmTop)"/>
    <path d="M52 52h16v26H52z" fill="#fff1d2"/>
    <path d="M34 40c0-8 8-13 16-13s16 5 16 13" stroke="#ed8e2b" stroke-width="3" stroke-linecap="round"/>
    <path d="M38 58c0 14 8 24 22 24s22-10 22-24" stroke="#d98a3a" stroke-width="2.5"/>
    <path d="M42 76h36v16H42z" fill="#f7d6a1"/>
    <path d="M42 76c0 6 2 9 6 11" stroke="#ca7d37" stroke-width="2.5"/>
    <path d="M42 83h36" stroke="#ca7d37" stroke-width="2.5"/>
    <rect x="38" y="80" width="44" height="11" rx="5.5" fill="#ffe6bd" opacity="0.8"/>
  </g>
</svg>
